<svg version="1.1" id="Calque_1" xmlns="http://www.w3.org/2000/svg" x="0" y="0" viewBox="0 0 512 512" style="enable-background:new 0 0 512 512" xml:space="preserve">
    <style>
        .st0{fill:#ffe500}.st1{fill:#ffd43b}.st2{fill:#fff}.st3,.st4{fill:none;stroke:#000;stroke-width:1.713;stroke-miterlimit:10}.st4{stroke:#fff;stroke-width:2.1859}.st5,.st6{fill:none;stroke:#000;stroke-width:3.4355;stroke-linejoin:round}.st6{stroke-linecap:round}.st7{stroke-width:3.813;stroke-miterlimit:10}.st10,.st7,.st8,.st9{fill:none;stroke:#000}.st8{stroke-width:5.1041;stroke-miterlimit:10}.st10,.st9{stroke-width:2.552;stroke-linejoin:round}.st10{stroke-linecap:round}.st11{fill:#fff;stroke:#999;stroke-width:1.5694;stroke-miterlimit:10}.st12{clip-path:url(#SVGID_00000001629298867441111260000004898634038367560601_)}.st13{fill:none;stroke:#000;stroke-width:20.8687;stroke-linejoin:round}.st14{fill:red}.st15{fill:none;stroke:#fff;stroke-width:2.0091;stroke-miterlimit:10}.st17{fill:#d93f0c}
    </style>
    <path d="M316.1 82.1c-.5-8.4-7.8-14.8-16.3-14.3-.4 0-.8.1-1.2.1-85 12.5-159 56.5-212.4 127.2-1.2 1.6-2.3 3.2-3.4 4.7-50.5 68.9-71.3 145.4-61.9 227 .7 6.9 6.1 12.5 13 13.6 11.8 1.8 30.8 2.3 59.8-2.5 57-9.4 169.8-20.4 207.4-79.6.1-.2.3-.4.4-.6 1.1-1.8 2.1-3.6 3.1-5.4C327.3 309 322 169 316.1 82.1z" style="fill:#efefef"/>
    <path d="M222.5 218.1h4.1v8.1h16.3v-8.1c6.7 0 12.2-5.5 12.2-12.2v-32.5c0-6.7-5.5-12.2-12.2-12.2h-.6V159c0-1.8 1.4-3.2 3.2-3.2h11.3c1.8 0 3.2 1.4 3.2 3.2v90.6h16.3V159c0-10.7-8.7-19.4-19.4-19.4h-11.3c-5.2 0-10.1 2-13.7 5.7-3.7 3.7-5.7 8.6-5.7 13.7v2.2h-3.5c-6.7 0-12.2 5.5-12.2 12.2v32.5c-.1 6.7 5.3 12.2 12 12.2zm16.3-16.3h-12.2v-24.4h12.2v24.4zM168.3 212.4h2.2c14.9-.3 26.8-12.7 26.6-27.6v-7.9c-.6-14.8-13.1-26.5-27.9-26h-1.4c-7.2.2-14 3.1-19 8.4-5 5.2-7.7 12-7.5 19.3v7.9c.5 14.5 12.5 25.9 27 25.9zm-10.9-34.2c-.1-2.9 1-5.7 3-7.8 2-2.1 4.7-3.3 7.6-3.4H169.2c6-.2 11.1 4.4 11.3 10.4v7.5c.1 6-4.7 11-10.7 11.1h-1.3c-6 .3-11.1-4.4-11.3-10.4v-7.3l.2-.1z"/>
    <path d="M364.3 258.4h-149l-25.9-31c-.2-.2-.3-.4-.5-.5-8.2-8.2-21.1-10.6-32.1-6-9.9 4.1-15.7 12.7-15.7 23.1v11.3c0 4.5 3.6 8.1 8.1 8.1s8.1-3.6 8.1-8.1V244c0-4.7 3.1-7 5.7-8 4-1.6 10.1-1.6 14.1 2.3l28 33.6c1.5 1.9 3.8 2.9 6.2 2.9h19.1v16.6h-97.5v-69.1c0-4.5-3.6-8.1-8.1-8.1s-8.1 3.6-8.1 8.1v142.2c0 4.5 3.6 8.1 8.1 8.1s8.1-3.6 8.1-8.1V344h245.7v18.7c0 4.5 3.6 8.1 8.1 8.1s8.1-3.6 8.1-8.1v-73.6c.3-16.9-13.5-30.7-30.5-30.7zm-231.1 49.1h97.5v20.3h-97.5v-20.3zm113.7 20.3v-53.1h117.4c8 0 14.5 6.5 14.5 14.5v38.6H246.9z"/>
</svg>
