<svg version="1.1" id="Calque_1" xmlns="http://www.w3.org/2000/svg" x="0" y="0" viewBox="0 0 512 512" style="enable-background:new 0 0 512 512" xml:space="preserve">
    <style>
        .st1{fill:#ffd43b}.st2{fill:#fff}.st3,.st4{fill:none;stroke:#000;stroke-width:1.713;stroke-miterlimit:10}.st4{stroke:#fff;stroke-width:2.1859}.st5,.st6{fill:none;stroke:#000;stroke-width:3.4355;stroke-linejoin:round}.st6{stroke-linecap:round}.st7{stroke-width:3.813;stroke-miterlimit:10}.st10,.st7,.st8,.st9{fill:none;stroke:#000}.st8{stroke-width:5.1041;stroke-miterlimit:10}.st10,.st9{stroke-width:2.552;stroke-linejoin:round}.st10{stroke-linecap:round}.st11{fill:#fff;stroke:#999;stroke-width:1.5694;stroke-miterlimit:10}.st12{clip-path:url(#SVGID_00000111895169653960128910000011053334744694261911_)}.st13{fill:none;stroke:#000;stroke-width:20.8687;stroke-linejoin:round}.st14{fill:red}.st15{fill:none;stroke:#fff;stroke-width:2.0091;stroke-miterlimit:10}.st16{fill:#efefef}.st17{fill:#d93f0c}
    </style>
    <path d="M276.3 72.1c-.5-7.1-6.6-12.4-13.6-12-.3 0-.7.1-1 .1-71.2 10.5-133.2 47.4-177.9 106.5-1 1.3-1.9 2.6-2.9 4C38.6 228.4 21.2 292.5 29 360.9c.6 5.8 5.1 10.5 10.9 11.3 9.9 1.5 25.8 1.9 50.1-2.1 47.7-7.9 142.3-17.1 173.7-66.6.1-.2.2-.3.3-.5.9-1.5 1.8-3 2.6-4.5 19-36.3 14.6-153.6 9.7-226.4z" style="fill:#ffe500"/>
    <path d="M264.7 256.1h44.1v-26.4h26.4v-44.1h-26.4v-26.4h-44.1v26.4h-26.4v44.1h26.4v26.4zm-15.3-37.5v-21.9h26.4v-26.4h21.9v26.4h26.4v21.9h-26.4V245h-21.9v-26.4h-26.4zM161.4 215.8c5.2 4.8 11.8 7.3 18.8 7.3h2.5c7.4-.2 14.3-3.2 19.4-8.5 5.1-5.3 7.9-12.3 7.7-19.7v-9.1c-.3-7.4-3.5-14.2-8.9-19.3-5.4-5-12.4-7.6-19.7-7.3h-1.5c-7.4.2-14.3 3.2-19.4 8.5-5.1 5.3-7.9 12.3-7.7 19.7v9.1c.1 7.4 3.3 14.3 8.8 19.3zm2.1-28.6c-.1-4.4 1.5-8.7 4.6-11.9 3.1-3.2 7.2-5 11.7-5.1h1.5c4.4-.2 8.7 1.4 12 4.4 3.3 3 5.2 7.1 5.4 11.5V194.9c.1 4.4-1.6 8.7-4.6 11.9-3.1 3.2-7.2 5-11.7 5.1H181c-4.4.2-8.7-1.4-12-4.4-3.3-3-5.2-7.1-5.4-11.6v-8.7h-.1z"/>
    <path d="M408.9 284.6H233.2L201.8 247c-.1-.1-.2-.3-.3-.4-8.4-8.4-21.7-10.9-33.2-6.1-10 4.1-15.9 12.8-15.9 23.3V277c0 3.1 2.5 5.6 5.6 5.6s5.6-2.5 5.6-5.6v-13.2c0-8.1 5.7-11.6 9.1-13 7.1-3 15.7-1.5 20.9 3.6l32.8 39.4c1.1 1.3 2.6 2 4.3 2h27.8v29.4H138.9v-86.1c0-3.1-2.5-5.6-5.6-5.6s-5.6 2.5-5.6 5.6v161.1c0 3.1 2.5 5.6 5.6 5.6s5.6-2.5 5.6-5.6v-25h290.8v27.3c0 3.1 2.5 5.6 5.6 5.6s5.6-2.5 5.6-5.6v-85.9c-.1-17.7-14.4-32-32-32zm-270 51.6h119.5V364H138.9v-27.8zM269.5 364v-68.3h139.3c11.5 0 20.9 9.4 20.9 20.9V364H269.5z"/>
</svg>
