<svg version="1.1" id="Calque_1" xmlns="http://www.w3.org/2000/svg" x="0" y="0" viewBox="0 0 512 512" style="enable-background:new 0 0 512 512" xml:space="preserve">
    <style>
        .st0{fill:#ffe500}.st1{fill:#ffd43b}.st2{fill:#fff}.st3,.st4{fill:none;stroke:#000;stroke-width:1.713;stroke-miterlimit:10}.st4{stroke:#fff;stroke-width:2.1859}.st5,.st6{fill:none;stroke:#000;stroke-width:3.4355;stroke-linejoin:round}.st6{stroke-linecap:round}.st7{stroke-width:3.813;stroke-miterlimit:10}.st10,.st7,.st8,.st9{fill:none;stroke:#000}.st8{stroke-width:5.1041;stroke-miterlimit:10}.st10,.st9{stroke-width:2.552;stroke-linejoin:round}.st10{stroke-linecap:round}.st11{fill:#fff;stroke:#999;stroke-width:1.5694;stroke-miterlimit:10}.st12{clip-path:url(#SVGID_00000038398302304581848450000004587574028367736748_)}.st13{fill:none;stroke:#000;stroke-width:20.8687;stroke-linejoin:round}.st14{fill:red}.st15{fill:none;stroke:#fff;stroke-width:2.0091;stroke-miterlimit:10}.st17{fill:#d93f0c}
    </style>
    <path d="M316.1 82.1c-.5-8.4-7.8-14.8-16.3-14.3-.4 0-.8.1-1.2.1-85 12.5-159 56.5-212.4 127.2-1.2 1.6-2.3 3.2-3.4 4.7-50.5 68.9-71.3 145.4-61.9 227 .7 6.9 6.1 12.5 13 13.6 11.8 1.8 30.8 2.3 59.8-2.5 57-9.4 169.8-20.4 207.4-79.6.1-.2.3-.4.4-.6 1.1-1.8 2.1-3.6 3.1-5.4C327.3 309 322 169 316.1 82.1z" style="fill:#efefef"/>
    <path d="M390.3 130.7c-5.8-6.1-13.6-9.5-22-9.7h-1.6v-14h-6.3c-11.2 0-20.4 9.2-20.4 20.4v2.9c0 11.2 9.2 20.4 20.4 20.4h6.3v-14h1.1c.4 0 .8 0 1.2.1 8.6.8 14.9 8.4 14.1 17v.2c0 12.4-5.9 47.4-16.6 78.2-9.4 27.3-25.4 59.7-47.8 59.7s-38.4-32.5-47.8-59.7c-10.7-30.8-16.6-65.8-16.6-78.2v-.2c0-.4-.1-.8-.1-1.2-.1-8.6 6.8-15.7 15.4-15.9h1.4v14h6.3v-2 2c11.3 0 20.4-9.2 20.4-20.4v-3c0-11.3-9.2-20.4-20.4-20.4H271V121H268.1c-17.3 1-30.5 15.8-29.6 33.1 0 11.7 5.4 49.6 18 84.9 10.6 29.8 29.1 65.1 57.8 68.5 6.3 26.5 3.6 49-7.6 63.7-8.9 11.6-22.8 17.8-40.3 17.8-14.7.3-28.8-6.4-37.7-18.1-13.1-16.8-16.7-42-9.9-69.3 11.8-47 10.9-75.9-2.9-93.6-7.9-10.1-20-16.1-36-17.9-3.4-15.1-16.8-26.4-32.9-26.4-18.6 0-33.7 15.1-33.7 33.7s15.1 33.7 33.7 33.7c15.6 0 28.8-10.7 32.6-25.2 10.9 1.4 18.8 5.3 23.8 11.7 10.4 13.3 10.4 38.7 0 80-8 32-3.4 62.2 12.8 82.9 11.8 15.2 30.2 24.2 49.4 24.2h.9c22.6 0 40.9-8.3 52.9-24 13.9-18.2 17.7-44.6 10.9-74.8 24.8-7.7 41.1-39.7 50.8-67 12.5-35.3 18-73.2 18-84.9v-1c0-8.3-3.1-16.2-8.8-22.3zm-34.5-.3v-2.9c0-2.5 2.1-4.6 4.6-4.6h5.8l-.4 12.1h-5.3c-2.6 0-4.7-2-4.7-4.6zm-74-2.9v2.9c0 2.5-2.1 4.6-4.6 4.6h-5.6l-.4-12.1h6c2.5 0 4.6 2.1 4.6 4.6zm-117.2 70.1c0 9.9-8 17.9-17.9 17.9s-17.9-8-17.9-17.9 8-17.9 17.9-17.9 17.9 8 17.9 17.9zm101.7 205.3v1.1-1.1z"/>
    <path d="M279.2 225.5h78.6v15.8h-78.6z"/>
</svg>
