<svg version="1.1" id="Calque_1" xmlns="http://www.w3.org/2000/svg" x="0" y="0" viewBox="0 0 512 512" style="enable-background:new 0 0 512 512" xml:space="preserve">
    <style>
        .st1{fill:#ffd43b}.st2{fill:#fff}.st3,.st4{fill:none;stroke:#000;stroke-width:1.713;stroke-miterlimit:10}.st4{stroke:#fff;stroke-width:2.1859}.st5,.st6{fill:none;stroke:#000;stroke-width:3.4355;stroke-linejoin:round}.st6{stroke-linecap:round}.st7{stroke-width:3.813;stroke-miterlimit:10}.st10,.st7,.st8,.st9{fill:none;stroke:#000}.st8{stroke-width:5.1041;stroke-miterlimit:10}.st10,.st9{stroke-width:2.552;stroke-linejoin:round}.st10{stroke-linecap:round}.st11{fill:#fff;stroke:#999;stroke-width:1.5694;stroke-miterlimit:10}.st12{clip-path:url(#SVGID_00000088847930519986712830000005972466672667766943_)}.st13{fill:none;stroke:#000;stroke-width:20.8687;stroke-linejoin:round}.st14{fill:red}.st15{fill:none;stroke:#fff;stroke-width:2.0091;stroke-miterlimit:10}.st16{fill:#efefef}.st17{fill:#d93f0c}
    </style>
    <g id="Groupe_5749" transform="translate(83.335 68.449)">
        <path d="M193 3.7c-.5-7.1-6.6-12.4-13.6-12-.3 0-.7.1-1 .1C107.2 2.3 45.2 39.2.5 98.4c-1 1.3-1.9 2.6-2.9 4-42.2 57.6-59.7 121.7-51.9 190.1.6 5.8 5.1 10.5 10.9 11.3 9.9 1.5 25.8 1.9 50.1-2.1 47.7-7.9 142.3-17.1 173.7-66.6.1-.2.2-.3.3-.5.9-1.5 1.8-3 2.6-4.5 19-36.4 14.6-153.6 9.7-226.4z" style="fill:#ffe500" id="Groupe_5751"/>
    </g>
    <path d="M356.7 181.7v-17.8c0-3.1-2.5-5.6-5.6-5.6s-5.6 2.5-5.6 5.6v17.8c0 3.1 2.5 5.6 5.6 5.6s5.6-2.5 5.6-5.6z"/>
    <path d="M358.6 324.7H339.2c-11.5 0-20.7 6.2-28.1 11.2-5 3.4-9.8 6.6-13.5 6.6h-5.9c-3.1 0-5.6 2.5-5.6 5.6v6.3H166.8c-6.8 0-12.3-5.5-12.3-12.3v-59.8h12.7v6.3c0 12.9 10.5 23.4 23.4 23.4h142.7c12.9 0 23.4-10.5 23.4-23.4v-30.1h6.3c2.5 0 4.8-1.7 5.4-4.2l6.5-26c14-8.2 23.4-23.4 23.4-40.7 0-26-21.2-47.2-47.2-47.2s-47.2 21.2-47.2 47.2c0 17.3 9.4 32.5 23.4 40.7l6.5 26c.6 2.5 2.8 4.2 5.4 4.2h6.3v30.1c0 6.8-5.5 12.3-12.3 12.3H190.6c-6.8 0-12.3-5.5-12.3-12.3v-6.3h89.5c12.9 0 23.4-10.5 23.4-23.4V140.1c0-12.9-10.5-23.4-23.4-23.4h-35.7c-3.1 0-5.6 2.5-5.6 5.6v118.9c0 3.1 2.5 5.6 5.6 5.6h35.7c6.6 0 12.1 5.3 12.3 11.9V259.3c-.1 6.7-5.6 12.1-12.3 12.1h-89.5v-6.3c0-3.1-2.5-5.6-5.6-5.6s-5.6 2.5-5.6 5.6v6.3h-12.7v-6.3c0-3.1-2.5-5.6-5.6-5.6-3.1 0-5.6 2.5-5.6 5.6v6.3h-6.3c-3.3 0-6.4-1.3-8.7-3.6-2.3-2.3-3.6-5.4-3.6-8.7 0-6.8 5.5-12.3 12.3-12.3h71.3c3.1 0 5.6-2.5 5.6-5.6s-2.5-5.6-5.6-5.6h-71.3c-4.5 0-8.7 1.3-12.3 3.5v-99c0-6.8 5.5-12.3 12.3-12.3h71.3c3.1 0 5.6-2.5 5.6-5.6s-2.5-5.6-5.6-5.6h-71.3c-12.9 0-23.4 10.5-23.4 23.4v119.4c.1 6.1 2.5 11.8 6.8 16.2 4.4 4.4 10.3 6.9 16.5 6.9h6.3v59.8c0 12.9 10.5 23.4 23.4 23.4h119.3v6.3c0 3.1 2.5 5.6 5.6 5.6h5.9c3.6 0 8.4 3.2 13.5 6.6 7.4 5 16.6 11.2 28.1 11.2H357.8c19.1 0 34.8-15.3 35.3-34.4.2-9.4-3.2-18.4-9.7-25.2-6.6-7-15.4-10.8-24.8-11.1zM315 187.6c0-19.9 16.2-36.1 36.1-36.1s36.1 16.2 36.1 36.1-16.2 36.1-36.1 36.1-36.1-16.2-36.1-36.1zm25.1 45.9c3.5.9 7.2 1.3 11 1.3s7.5-.5 11-1.3l-3.5 14h-15.1l-3.4-14zm-59.9 5.6c-3.6-2.2-7.8-3.5-12.3-3.5h-30.1V127.8h30.1c6.8 0 12.3 5.5 12.3 12.3v99zm94.2 138.4c-4.7 4.5-10.8 6.8-17.3 6.7H339.2c-8.1 0-15.1-4.7-21.9-9.3-6.5-4.4-12.6-8.5-19.7-8.5h-.4v-12.7h.4c7 0 13.2-4.1 19.7-8.5 6.8-4.6 13.8-9.3 21.9-9.3H358.2c6.5.2 12.5 2.8 16.9 7.5 4.5 4.7 6.8 10.8 6.7 17.3 0 6.3-2.7 12.3-7.4 16.8z"/>
</svg>
