<svg version="1.1" id="Calque_1" xmlns="http://www.w3.org/2000/svg" x="0" y="0" viewBox="0 0 512 512" style="enable-background:new 0 0 512 512" xml:space="preserve">
    <style>
        .st1{fill:#ffd43b}.st2{fill:#fff}.st3,.st4{fill:none;stroke:#000;stroke-width:1.713;stroke-miterlimit:10}.st4{stroke:#fff;stroke-width:2.1859}.st5,.st6{fill:none;stroke:#000;stroke-width:3.4355;stroke-linejoin:round}.st6{stroke-linecap:round}.st7{stroke-width:3.813;stroke-miterlimit:10}.st10,.st7,.st8,.st9{fill:none;stroke:#000}.st8{stroke-width:5.1041;stroke-miterlimit:10}.st10,.st9{stroke-width:2.552;stroke-linejoin:round}.st10{stroke-linecap:round}.st11{fill:#fff;stroke:#999;stroke-width:1.5694;stroke-miterlimit:10}.st12{clip-path:url(#SVGID_00000048471368629048034470000014368282772717719449_)}.st13{fill:none;stroke:#000;stroke-width:20.8687;stroke-linejoin:round}.st14{fill:red}.st15{fill:none;stroke:#fff;stroke-width:2.0091;stroke-miterlimit:10}.st16{fill:#efefef}.st17{fill:#d93f0c}
    </style>
    <path d="M276.3 72.1c-.5-7.1-6.6-12.4-13.6-12-.3 0-.7.1-1 .1-71.2 10.5-133.2 47.4-177.9 106.5-1 1.3-1.9 2.6-2.9 4C38.6 228.4 21.2 292.5 29 360.9c.6 5.8 5.1 10.5 10.9 11.3 9.9 1.5 25.8 1.9 50.1-2.1 47.7-7.9 142.3-17.1 173.7-66.6.1-.2.2-.3.3-.5.9-1.5 1.8-3 2.6-4.5 19-36.3 14.6-153.6 9.7-226.4z" style="fill:#ffe500"/>
    <g id="Groupe_5745" transform="translate(67.112 36.983)">
        <g id="Groupe_5747">
            <path d="M268.2 270.8h-.7c-45.9-5.5-115.2-39.8-123.6-83.1-.6-3 1.4-5.9 4.4-6.5 3-.6 5.9 1.4 6.5 4.4 6.7 34.3 67.8 68.7 114 74.2 3 .4 5.2 3.1 4.9 6.2-.3 2.7-2.7 4.8-5.5 4.8z"/>
            <path d="M108.6 258.2c-2.5 0-4.8-1.7-5.4-4.3-.7-3 1.2-6 4.1-6.7 17.4-4.1 37.2-24.2 46.3-41.3 1.4-2.7 4.8-3.7 7.5-2.3 2.7 1.4 3.7 4.8 2.3 7.5-10.1 19.1-32.3 42-53.6 47-.3.1-.7.1-1.2.1z"/>
            <path d="M188.8 360.9c-21.8 0-77.5-36.2-77.7-66.5V250h11.1v44.4c.1 22.7 49.8 55.4 66.6 55.4 16.8 0 66.4-32.7 66.6-55.4v-30.2h11.1v30.3c-.2 30.2-55.8 66.4-77.7 66.4z"/>
            <path d="M141.8 368.9c-3.1 0-5.6-2.5-5.6-5.6v-31.4c0-3.1 2.5-5.6 5.6-5.6s5.6 2.5 5.6 5.6v31.4c-.1 3.1-2.6 5.6-5.6 5.6zM235.9 368.9c-3.1 0-5.6-2.5-5.6-5.6v-31.4c0-3.1 2.5-5.6 5.6-5.6s5.6 2.5 5.6 5.6v31.4c-.1 3.1-2.6 5.6-5.6 5.6zM250.3 168.1c-.8 0-1.7-.2-2.5-.6-21.8-11-55.3-11.1-55.8-11.1s-34 .2-55.8 11.1c-2.1 1.1-4.6.7-6.3-1-1-1-25-24.5-25-75.5 0-2 1.1-3.9 2.9-4.9C128 75.3 158.6 69 192 69c33.4 0 64 6.2 84.2 17.1 1.8 1 2.9 2.8 2.9 4.9 0 51-24 74.5-25 75.5-1.1 1.1-2.4 1.6-3.8 1.6zM192 145.3c1.4 0 33 .1 56.9 10.5 5.4-6.9 18.3-26.8 19.1-61.3-18.6-9.1-46-14.2-76-14.2-29.9 0-57.3 5.2-76 14.2.8 34.4 13.7 54.3 19.1 61.3 23.9-10.4 55.5-10.5 56.9-10.5zM292.3 368.9c-3.1 0-5.6-2.5-5.6-5.6V237.8c0-26.5-7.5-46.9-22.4-60.7-2.2-2.1-2.4-5.6-.3-7.9s5.6-2.4 7.9-.3c17.2 16 25.9 39.1 25.9 68.9v125.5c.1 3.1-2.4 5.6-5.5 5.6zM85.4 368.9c-3.1 0-5.6-2.5-5.6-5.6V237.8c0-32.3 10.3-56.8 30.5-72.8 2.4-1.9 5.9-1.5 7.8.9 1.9 2.4 1.5 5.9-.9 7.8-17.7 14-26.3 35-26.3 64.1v125.5c.1 3.1-2.4 5.6-5.5 5.6z"/>
            <path d="M186.4 87.3h11.1v50.2h-11.1z"/>
            <path d="M166.9 106.8h50.2v11.1h-50.2z"/>
        </g>
    </g>
</svg>
