<svg id="Groupe_5696" data-name="Groupe 5696" xmlns="http://www.w3.org/2000/svg" xmlns:xlink="http://www.w3.org/1999/xlink" width="272.289" height="101.29" viewBox="0 0 272.289 101.29">
  <defs>
    <clipPath id="clip-path">
      <rect id="Rectangle_1848" data-name="Rectangle 1848" width="272.289" height="101.29" fill="none"/>
    </clipPath>
  </defs>
  <g id="Groupe_5695" data-name="Groupe 5695" clip-path="url(#clip-path)">
    <path id="Tracé_17721" data-name="Tracé 17721" d="M198.439,141.044a.674.674,0,0,1-.672-.463l-3.716-9.5a1.054,1.054,0,0,1-.084-.374.748.748,0,0,1,.056-.287.7.7,0,0,1,.156-.235.73.73,0,0,1,.232-.156.75.75,0,0,1,.291-.055.687.687,0,0,1,.678.436l3.06,7.87,3.059-7.87a.656.656,0,0,1,.678-.436.758.758,0,0,1,.287.055.72.72,0,0,1,.235.156.713.713,0,0,1,.156.235.758.758,0,0,1,.055.287.942.942,0,0,1-.083.374l-3.716,9.5a.674.674,0,0,1-.671.463" transform="translate(-83.408 -55.888)" fill="#21313d"/>
    <path id="Tracé_17722" data-name="Tracé 17722" d="M219.408,142.831v-.139a3.987,3.987,0,0,1-1.129.637,3.777,3.777,0,0,1-1.3.222,3.877,3.877,0,1,1,3.876-3.876v3.157a.721.721,0,0,1-.72.72.7.7,0,0,1-.516-.211.692.692,0,0,1-.211-.508m-2.43-5.586a2.356,2.356,0,0,0-.955.194,2.441,2.441,0,0,0-.768.523,2.47,2.47,0,0,0-.516.772,2.423,2.423,0,0,0,0,1.883,2.434,2.434,0,0,0,1.284,1.294,2.441,2.441,0,0,0,1.9,0,2.469,2.469,0,0,0,.772-.526,2.51,2.51,0,0,0,.519-.772,2.405,2.405,0,0,0,0-1.876,2.5,2.5,0,0,0-.519-.772,2.45,2.45,0,0,0-.772-.526,2.337,2.337,0,0,0-.948-.194" transform="translate(-91.636 -58.395)" fill="#21313d"/>
    <path id="Tracé_17723" data-name="Tracé 17723" d="M234.059,136.511a3.593,3.593,0,0,1,3.548-.429,3.793,3.793,0,0,1,1.153.771,3.654,3.654,0,0,1,.789,1.149,3.46,3.46,0,0,1,.291,1.408v3.413a.723.723,0,1,1-1.447,0v-3.413a2.067,2.067,0,0,0-.173-.837,2.215,2.215,0,0,0-1.156-1.156,2.069,2.069,0,0,0-.838-.173,2.09,2.09,0,0,0-.841.169,2.2,2.2,0,0,0-1.156,1.159,2.1,2.1,0,0,0-.17.837v3.413a.7.7,0,0,1-.211.515.726.726,0,0,1-1.024,0,.7.7,0,0,1-.211-.515v-6.3a.7.7,0,0,1,.211-.512.723.723,0,0,1,1.235.5" transform="translate(-100.026 -58.395)" fill="#21313d"/>
    <path id="Tracé_17724" data-name="Tracé 17724" d="M252.611,136.511a3.593,3.593,0,0,1,3.548-.429,3.793,3.793,0,0,1,1.152.771A3.654,3.654,0,0,1,258.1,138a3.46,3.46,0,0,1,.291,1.408v3.413a.723.723,0,1,1-1.447,0v-3.413a2.066,2.066,0,0,0-.173-.837,2.214,2.214,0,0,0-1.156-1.156,2.069,2.069,0,0,0-.838-.173,2.09,2.09,0,0,0-.841.169,2.2,2.2,0,0,0-1.156,1.159,2.1,2.1,0,0,0-.17.837v3.413a.7.7,0,0,1-.211.515.726.726,0,0,1-1.024,0,.7.7,0,0,1-.211-.515v-6.3a.7.7,0,0,1,.211-.512.723.723,0,0,1,1.235.5" transform="translate(-108.003 -58.395)" fill="#21313d"/>
    <path id="Tracé_17725" data-name="Tracé 17725" d="M275.624,141.37a.7.7,0,0,1,.72.72.722.722,0,0,1-.207.519A3.877,3.877,0,1,1,273.6,135.8a3.932,3.932,0,0,1,3.593,2.384,3.876,3.876,0,0,1,.284,1.492.69.69,0,0,1-.211.516.714.714,0,0,1-.516.2h-5.482a2.367,2.367,0,0,0,.347.7,2.419,2.419,0,0,0,.536.54,2.494,2.494,0,0,0,.679.349,2.394,2.394,0,0,0,.771.124,2.436,2.436,0,0,0,.838-.138,2.29,2.29,0,0,0,.706-.415.762.762,0,0,1,.478-.18m.312-2.416a2.324,2.324,0,0,0-.349-.7,2.484,2.484,0,0,0-1.219-.89,2.393,2.393,0,0,0-.765-.124,2.423,2.423,0,0,0-.768.124,2.537,2.537,0,0,0-.686.35,2.415,2.415,0,0,0-.54.54,2.248,2.248,0,0,0-.339.7Z" transform="translate(-115.986 -58.395)" fill="#21313d"/>
    <path id="Tracé_17726" data-name="Tracé 17726" d="M290.647,139.861a2.681,2.681,0,0,1-.914-.512h.007a1.724,1.724,0,0,1-.527-1.253,1.69,1.69,0,0,1,.281-.952,2.531,2.531,0,0,1,.73-.723,3.677,3.677,0,0,1,1.014-.461,4.068,4.068,0,0,1,1.131-.162,3.843,3.843,0,0,1,2.969,1.391.671.671,0,0,1,.145.436.7.7,0,0,1-.719.72.584.584,0,0,1-.377-.125,3.5,3.5,0,0,1-.3-.27,2.339,2.339,0,0,0-1.717-.706,2.124,2.124,0,0,0-1.592.609.411.411,0,0,0-.111.3.258.258,0,0,0,.18.263l3.239,1.066A2.628,2.628,0,0,1,295,140h-.007a1.727,1.727,0,0,1,.526,1.253,1.688,1.688,0,0,1-.28.955,2.591,2.591,0,0,1-.731.723,3.543,3.543,0,0,1-1.01.46,4.1,4.1,0,0,1-1.129.16,3.834,3.834,0,0,1-2.97-1.378.73.73,0,0,1-.152-.45.7.7,0,0,1,.72-.72.578.578,0,0,1,.387.135q.16.134.291.259a2.343,2.343,0,0,0,1.723.706,2.114,2.114,0,0,0,1.592-.623.416.416,0,0,0,.1-.284.272.272,0,0,0-.186-.27Z" transform="translate(-124.365 -58.395)" fill="#21313d"/>
    <path id="Tracé_17727" data-name="Tracé 17727" d="M313.786,142.775a.72.72,0,1,1,0-1.44h3.157a.72.72,0,1,1,0,1.44Z" transform="translate(-134.622 -60.776)" fill="#21313d"/>
    <path id="Tracé_17728" data-name="Tracé 17728" d="M332.045,139.978l3.7-9.51a.733.733,0,0,1,.7-.5.716.716,0,0,1,.7.5l3.71,9.544a.794.794,0,0,1,.056.3.734.734,0,0,1-.734.734.684.684,0,0,1-.512-.215.779.779,0,0,1-.166-.235l-1.28-3.288h-3.544l-1.287,3.288a.8.8,0,0,1-.166.235.708.708,0,0,1-.52.215.7.7,0,0,1-.515-.215.712.712,0,0,1-.211-.519.791.791,0,0,1,.076-.332m5.6-4.139-1.2-3.108-1.2,3.108Z" transform="translate(-142.75 -55.888)" fill="#21313d"/>
    <path id="Tracé_17729" data-name="Tracé 17729" d="M359.958,143.55a.682.682,0,0,1-.512-.207.727.727,0,0,1-.209-.506,3.213,3.213,0,0,1-1.01.544,3.8,3.8,0,0,1-1.156.169,3.453,3.453,0,0,1-1.4-.287,3.677,3.677,0,0,1-1.928-1.928,3.455,3.455,0,0,1-.287-1.4v-3.419a.693.693,0,0,1,.211-.508.726.726,0,0,1,1.024,0,.692.692,0,0,1,.211.508v3.419a2.111,2.111,0,0,0,.17.845,2.167,2.167,0,0,0,1.152,1.152,2.174,2.174,0,0,0,1.682,0,2.2,2.2,0,0,0,1.159-1.156,2.085,2.085,0,0,0,.169-.841v-3.419a.693.693,0,0,1,.211-.508.7.7,0,0,1,.516-.211.721.721,0,0,1,.719.72v6.313a.691.691,0,0,1-.211.508.7.7,0,0,1-.515.211" transform="translate(-151.991 -58.395)" fill="#21313d"/>
    <path id="Tracé_17730" data-name="Tracé 17730" d="M373.421,136.518v.139a3.962,3.962,0,0,1,1.128-.637,3.781,3.781,0,0,1,1.3-.222,5.637,5.637,0,0,1,.654.042,2.89,2.89,0,0,1,.643.149,1.379,1.379,0,0,1,.489.294.645.645,0,0,1,.193.484.685.685,0,0,1-.059.284.8.8,0,0,1-.156.232.682.682,0,0,1-.228.156.718.718,0,0,1-.284.055.774.774,0,0,1-.3-.076,2.541,2.541,0,0,0-.948-.173,2.379,2.379,0,0,0-.948.19,2.423,2.423,0,0,0-1.291,1.291,2.373,2.373,0,0,0-.19.948v3.156a.721.721,0,0,1-.72.72.7.7,0,0,1-.516-.211.692.692,0,0,1-.211-.508v-6.313a.694.694,0,0,1,.211-.509.7.7,0,0,1,.516-.211.72.72,0,0,1,.72.72" transform="translate(-159.953 -58.395)" fill="#21313d"/>
    <path id="Tracé_17731" data-name="Tracé 17731" d="M393.965,142.831v-.139a3.988,3.988,0,0,1-1.129.637,3.777,3.777,0,0,1-1.3.222,3.877,3.877,0,1,1,3.876-3.876v3.157a.721.721,0,0,1-.72.72.7.7,0,0,1-.516-.211.692.692,0,0,1-.211-.508m-2.43-5.586a2.357,2.357,0,0,0-.955.194,2.441,2.441,0,0,0-.768.523,2.47,2.47,0,0,0-.516.772,2.423,2.423,0,0,0,0,1.883,2.434,2.434,0,0,0,1.284,1.294,2.442,2.442,0,0,0,1.9,0,2.469,2.469,0,0,0,.772-.526,2.509,2.509,0,0,0,.519-.772,2.405,2.405,0,0,0,0-1.876,2.5,2.5,0,0,0-.519-.772,2.45,2.45,0,0,0-.772-.526,2.338,2.338,0,0,0-.948-.194" transform="translate(-166.698 -58.395)" fill="#21313d"/>
    <path id="Tracé_17732" data-name="Tracé 17732" d="M409.718,142.831l-2.492-5.987a.809.809,0,0,1-.069-.325.7.7,0,0,1,.055-.277.764.764,0,0,1,.152-.232.687.687,0,0,1,.228-.156.738.738,0,0,1,.686.066.752.752,0,0,1,.284.356l1.945,4.644,1.945-4.658a.813.813,0,0,1,.239-.336.67.67,0,0,1,.439-.128.722.722,0,0,1,.284.055.69.69,0,0,1,.229.156.81.81,0,0,1,.156.232.661.661,0,0,1,.059.277.814.814,0,0,1-.076.325l-3.98,9.545a.818.818,0,0,1-.277.349.683.683,0,0,1-.409.135.691.691,0,0,1-.515-.207.71.71,0,0,1-.2-.519.759.759,0,0,1,.069-.318Z" transform="translate(-175.082 -58.395)" fill="#21313d"/>
    <rect id="Rectangle_1847" data-name="Rectangle 1847" width="155.853" height="0.372" transform="translate(97.616 70.237)" fill="#21313d"/>
    <path id="Tracé_17733" data-name="Tracé 17733" d="M91.992,57.552c4.891-.819,15.908-9.791,22.586-15.567a1.551,1.551,0,0,0,.081-2.275A32.587,32.587,0,0,0,91.4,30.272c-.2,0-.393.009-.591.012l.48,27.35c.024,0,.048,0,.072,0,.21-.019.42-.043.628-.078" transform="translate(-39.05 -13.017)" fill="#ffe500"/>
    <path id="Tracé_17734" data-name="Tracé 17734" d="M51.552,39.13a1.56,1.56,0,0,0-.306,1.876A19.915,19.915,0,0,0,55.1,45.7c4.237,4.04,12.014,12.508,19.1,11.943l-.48-27.35A31.812,31.812,0,0,0,51.552,39.13" transform="translate(-21.956 -13.026)" fill="#f99e00"/>
    <path id="Tracé_17735" data-name="Tracé 17735" d="M55.285,76.63c-2.154-10.016-9.349-16.97-14.644-20.877a1.445,1.445,0,0,0-2.054.353A31.916,31.916,0,0,0,33.8,81.429c.1.454.207.9.319,1.346l21.327-5.32c-.035-.191-.069-.382-.108-.572-.018-.084-.032-.169-.051-.253" transform="translate(-14.19 -23.853)" fill="#ec6500"/>
    <path id="Tracé_17736" data-name="Tracé 17736" d="M50.356,119.9a1.437,1.437,0,0,0,2.047-.694c2.8-6.791,5.509-16.291,3.882-25.17L34.958,99.36a32.518,32.518,0,0,0,15.4,20.544" transform="translate(-15.032 -40.438)" fill="#e23b07"/>
    <path id="Tracé_17737" data-name="Tracé 17737" d="M81.263,116.367c-3.939,1.981-7.276,10.036-9.419,14.215a1.293,1.293,0,0,0,.721,1.812,31.6,31.6,0,0,0,22.566-.539,1.291,1.291,0,0,0,.567-1.96c-.746-1.025-1.6-2.185-2.584-3.495-6.053-8.072-10.228-10.85-11.851-10.034" transform="translate(-30.832 -49.98)" fill="#20acbf"/>
    <path id="Tracé_17738" data-name="Tracé 17738" d="M113.442,117.54a1.448,1.448,0,0,0,1.9.253,32.587,32.587,0,0,0,13.7-20.053c.036-.159.064-.316.1-.475l-25.419-5.4a14.748,14.748,0,0,0-.572,1.645c-2.159,7.717,4.932,17.8,10.292,24.031" transform="translate(-44.185 -39.503)" fill="#38a375"/>
    <path id="Tracé_17739" data-name="Tracé 17739" d="M125.249,56.44a1.448,1.448,0,0,0-2.081-.352c-6.464,4.937-15.7,12.93-18.713,20.258l0,.006,25.419,5.4a31.87,31.87,0,0,0-4.623-25.314" transform="translate(-44.916 -23.992)" fill="#9cba29"/>
    <path id="Tracé_17740" data-name="Tracé 17740" d="M171.815,45.563a.7.7,0,0,1-.515-.185.683.683,0,0,1-.187-.509V30.517a.684.684,0,0,1,.187-.509.7.7,0,0,1,.515-.185h3.977a4.679,4.679,0,0,1,1.767.336,4.565,4.565,0,0,1,1.451.926,4.388,4.388,0,0,1,.983,1.4,4.2,4.2,0,0,1,.363,1.736,3.939,3.939,0,0,1-.3,1.55,4.747,4.747,0,0,1-.842,1.32.267.267,0,0,0,.047.439,5.446,5.446,0,0,1,1.509,1.609,3.907,3.907,0,0,1,.527,2.026,4.175,4.175,0,0,1-.362,1.747,4.437,4.437,0,0,1-.983,1.389,4.567,4.567,0,0,1-1.451.926,4.678,4.678,0,0,1-1.766.335Zm3.814-8.911a2.677,2.677,0,0,0,.866-.15,2.634,2.634,0,0,0,.807-.44,2.232,2.232,0,0,0,.6-.752,2.386,2.386,0,0,0,.234-1.088,2.246,2.246,0,0,0-.234-1.065,2.181,2.181,0,0,0-.6-.718,2.4,2.4,0,0,0-.807-.405,3.156,3.156,0,0,0-.866-.127H173.57a.206.206,0,0,0-.234.231v4.282a.206.206,0,0,0,.234.232Zm.936,6.828a3.135,3.135,0,0,0,.866-.127,2.409,2.409,0,0,0,.808-.4,2.18,2.18,0,0,0,.6-.718,2.238,2.238,0,0,0,.234-1.065,2.382,2.382,0,0,0-.234-1.088,2.242,2.242,0,0,0-.6-.752,2.669,2.669,0,0,0-.808-.44,2.707,2.707,0,0,0-.866-.15h-3a.205.205,0,0,0-.234.231v4.282a.206.206,0,0,0,.234.231Z" transform="translate(-73.581 -12.824)" fill="#21313d"/>
    <path id="Tracé_17741" data-name="Tracé 17741" d="M206.646,45.563a.915.915,0,0,1-.866-.625l-2.761-5.879a.5.5,0,0,0-.491-.324h-2.223a.206.206,0,0,0-.234.231v5.9a.685.685,0,0,1-.187.51.7.7,0,0,1-.515.185h-.819a.7.7,0,0,1-.515-.185.683.683,0,0,1-.187-.51V30.517a.683.683,0,0,1,.187-.509.7.7,0,0,1,.515-.185h4.8a4.588,4.588,0,0,1,1.755.336,4.313,4.313,0,0,1,1.416.926,4.263,4.263,0,0,1,.936,1.4,4.458,4.458,0,0,1,.339,1.736,4.381,4.381,0,0,1-2.246,3.888c-.25.139-.3.363-.164.671l2.808,5.949a.615.615,0,0,1,.023.591.519.519,0,0,1-.491.243Zm-3.44-8.911a2.4,2.4,0,0,0,.9-.174,2.267,2.267,0,0,0,.761-.5,2.483,2.483,0,0,0,.526-.775,2.42,2.42,0,0,0,.2-.984,2.256,2.256,0,0,0-.726-1.69,2.324,2.324,0,0,0-.761-.463,2.554,2.554,0,0,0-.9-.162h-2.878a.206.206,0,0,0-.234.231v4.282a.206.206,0,0,0,.234.232Z" transform="translate(-85.077 -12.824)" fill="#21313d"/>
    <path id="Tracé_17742" data-name="Tracé 17742" d="M234.749,40.3a5.591,5.591,0,0,1-.409,2.165,4.823,4.823,0,0,1-1.146,1.677,5.359,5.359,0,0,1-1.744,1.088,6.347,6.347,0,0,1-4.4,0,5.344,5.344,0,0,1-1.743-1.088,4.817,4.817,0,0,1-1.147-1.677,5.58,5.58,0,0,1-.409-2.165V34.741a5.582,5.582,0,0,1,.409-2.164,4.825,4.825,0,0,1,1.147-1.678,5.363,5.363,0,0,1,1.743-1.088,6.347,6.347,0,0,1,4.4,0,5.378,5.378,0,0,1,1.744,1.088,4.831,4.831,0,0,1,1.146,1.678,5.592,5.592,0,0,1,.409,2.164Zm-2.222-5.555a3.31,3.31,0,0,0-.842-2.314,3.66,3.66,0,0,0-4.867,0,3.307,3.307,0,0,0-.842,2.314V40.3a3.307,3.307,0,0,0,.842,2.315,3.66,3.66,0,0,0,4.867,0,3.309,3.309,0,0,0,.842-2.315Z" transform="translate(-96.216 -12.65)" fill="#21313d"/>
    <path id="Tracé_17743" data-name="Tracé 17743" d="M261.789,42.842a.627.627,0,0,1,.211.51.715.715,0,0,1-.211.463,7.4,7.4,0,0,1-1.755,1.273,6.215,6.215,0,0,1-4.727.127,5.024,5.024,0,0,1-1.7-1.134,5.248,5.248,0,0,1-1.123-1.76,6.052,6.052,0,0,1-.409-2.257V34.972a5.986,5.986,0,0,1,.409-2.233,5.248,5.248,0,0,1,1.123-1.76,5.165,5.165,0,0,1,1.7-1.146,5.4,5.4,0,0,1,2.129-.417,6.066,6.066,0,0,1,1.4.15,6.41,6.41,0,0,1,1.147.382,4.79,4.79,0,0,1,.9.52,6.4,6.4,0,0,1,.644.544.6.6,0,0,1,0,.972l-.539.532a.718.718,0,0,1-.445.243.729.729,0,0,1-.491-.243,6.02,6.02,0,0,0-.925-.648,3.311,3.311,0,0,0-1.7-.37,3.116,3.116,0,0,0-1.322.266,2.9,2.9,0,0,0-.983.741,3.234,3.234,0,0,0-.62,1.111,4.27,4.27,0,0,0-.211,1.354v5.092a3.7,3.7,0,0,0,.831,2.511,2.885,2.885,0,0,0,2.305.961,3.656,3.656,0,0,0,1.744-.382,6.073,6.073,0,0,0,1.158-.775.817.817,0,0,1,.479-.208.628.628,0,0,1,.5.208Z" transform="translate(-108.396 -12.65)" fill="#21313d"/>
    <path id="Tracé_17744" data-name="Tracé 17744" d="M278.643,41.493a.7.7,0,0,1-.515-.185.684.684,0,0,1-.187-.51V26.448a.685.685,0,0,1,.188-.51.7.7,0,0,1,.515-.185h7.722a.7.7,0,0,1,.515.185.685.685,0,0,1,.188.51v.694a.683.683,0,0,1-.187.509.7.7,0,0,1-.515.185H280.4a.206.206,0,0,0-.234.231v4.167a.205.205,0,0,0,.234.231h5.5a.7.7,0,0,1,.515.185.684.684,0,0,1,.188.509v.694a.684.684,0,0,1-.187.51.7.7,0,0,1-.515.185h-5.5a.206.206,0,0,0-.234.231v4.4a.2.2,0,0,0,.234.231h6.435a.7.7,0,0,1,.515.186.686.686,0,0,1,.187.509V40.8a.686.686,0,0,1-.187.51.7.7,0,0,1-.515.185Zm4.282-17.569a.645.645,0,0,1-.457.255.773.773,0,0,1-.527-.162l-.467-.37a.576.576,0,0,1-.27-.451.8.8,0,0,1,.176-.521l1.684-2.037a.693.693,0,0,1,.479-.278.655.655,0,0,1,.5.185l.468.347a.686.686,0,0,1,.281.474.707.707,0,0,1-.188.52Z" transform="translate(-119.518 -8.754)" fill="#21313d"/>
    <path id="Tracé_17745" data-name="Tracé 17745" d="M304.506,45.563a.7.7,0,0,1-.515-.185.684.684,0,0,1-.187-.51V30.517a.686.686,0,0,1,.187-.51.7.7,0,0,1,.515-.185h.819a.7.7,0,0,1,.515.185.686.686,0,0,1,.187.51V43.248a.206.206,0,0,0,.234.231h6.388a.7.7,0,0,1,.515.185.684.684,0,0,1,.188.509v.694a.684.684,0,0,1-.188.51.7.7,0,0,1-.515.185Z" transform="translate(-130.639 -12.824)" fill="#21313d"/>
    <path id="Tracé_17746" data-name="Tracé 17746" d="M328.85,45.563a.7.7,0,0,1-.515-.185.682.682,0,0,1-.187-.51V30.517a.684.684,0,0,1,.187-.51.7.7,0,0,1,.515-.185h.819a.7.7,0,0,1,.515.185.686.686,0,0,1,.187.51V44.868a.684.684,0,0,1-.187.51.7.7,0,0,1-.515.185Z" transform="translate(-141.107 -12.824)" fill="#21313d"/>
    <path id="Tracé_17747" data-name="Tracé 17747" d="M351.809,45.563a.734.734,0,0,1-.527.162,1.391,1.391,0,0,1-.55-.162l-6.809-3.935a.254.254,0,0,0-.292,0,.466.466,0,0,0-.176.231l-.959,3.148a.741.741,0,0,1-.8.556h-1.146q-.68,0-.492-.648l4.68-14.467a.883.883,0,0,1,.316-.5.964.964,0,0,1,.527-.127h1.638a.967.967,0,0,1,.527.127.891.891,0,0,1,.316.5l4.469,13.842a.727.727,0,0,1-.188.833Zm-5.172-12.8q-.07-.254-.234-.254t-.234.254l-1.849,6.111a.652.652,0,0,0-.023.451.542.542,0,0,0,.234.243l4.4,2.546q.257.162.374.035a.285.285,0,0,0,.07-.29Z" transform="translate(-146.213 -12.824)" fill="#21313d"/>
    <path id="Tracé_17748" data-name="Tracé 17748" d="M379.58,45.563a.772.772,0,0,1-.527-.174,2.218,2.218,0,0,1-.409-.521l-5.944-10.3c-.078-.124-.16-.17-.246-.139a.216.216,0,0,0-.129.231V44.868a.684.684,0,0,1-.187.51.7.7,0,0,1-.515.185H370.8a.7.7,0,0,1-.515-.185.682.682,0,0,1-.187-.51V30.517a.684.684,0,0,1,.187-.51.7.7,0,0,1,.515-.185h.913a1.215,1.215,0,0,1,.585.127,1.146,1.146,0,0,1,.421.451l5.687,9.791a.214.214,0,0,0,.222.116c.085-.015.129-.085.129-.209V30.517a.684.684,0,0,1,.188-.51.7.7,0,0,1,.514-.185h.819a.7.7,0,0,1,.515.185.686.686,0,0,1,.188.51V44.868a.684.684,0,0,1-.187.51.7.7,0,0,1-.515.185Z" transform="translate(-159.148 -12.824)" fill="#21313d"/>
    <path id="Tracé_17749" data-name="Tracé 17749" d="M399.746,45.564a.7.7,0,0,1-.515-.185.682.682,0,0,1-.188-.51V30.518a.683.683,0,0,1,.188-.51.7.7,0,0,1,.515-.185h4.095a6.249,6.249,0,0,1,2.352.428,5.415,5.415,0,0,1,1.813,1.169,5.143,5.143,0,0,1,1.158,1.759,5.851,5.851,0,0,1,.409,2.2v4.629a5.853,5.853,0,0,1-.409,2.2,5.137,5.137,0,0,1-1.158,1.759,5.413,5.413,0,0,1-1.813,1.168,6.238,6.238,0,0,1-2.352.429Zm7.6-10.185a3.926,3.926,0,0,0-.258-1.459,3.031,3.031,0,0,0-1.837-1.782,4.165,4.165,0,0,0-1.415-.231H401.5a.206.206,0,0,0-.234.231V43.249a.205.205,0,0,0,.234.231h2.34a4.151,4.151,0,0,0,1.415-.231,3.159,3.159,0,0,0,1.111-.671,2.967,2.967,0,0,0,.726-1.088,3.991,3.991,0,0,0,.258-1.481Z" transform="translate(-171.593 -12.825)" fill="#21313d"/>
    <path id="Tracé_17750" data-name="Tracé 17750" d="M427.72,45.563a.719.719,0,0,1-.524-.185.675.675,0,0,1-.191-.51V30.517a.677.677,0,0,1,.191-.51.721.721,0,0,1,.524-.185h7.868a.725.725,0,0,1,.525.185.681.681,0,0,1,.19.51v.695a.677.677,0,0,1-.19.508.72.72,0,0,1-.525.186h-6.079a.208.208,0,0,0-.239.231V36.3a.208.208,0,0,0,.239.231h5.6a.724.724,0,0,1,.524.185.678.678,0,0,1,.191.51v.694a.676.676,0,0,1-.191.509.719.719,0,0,1-.524.185h-5.6a.208.208,0,0,0-.239.231v4.4a.208.208,0,0,0,.239.231h6.557a.721.721,0,0,1,.524.185.677.677,0,0,1,.191.509v.694a.677.677,0,0,1-.191.51.721.721,0,0,1-.524.185Z" transform="translate(-183.617 -12.824)" fill="#21313d"/>
    <path id="Tracé_17751" data-name="Tracé 17751" d="M182.941,81.125a.8.8,0,0,1-.554.162,1.516,1.516,0,0,1-.579-.162l-7.169-3.935a.279.279,0,0,0-.308,0,.466.466,0,0,0-.185.231l-1.01,3.148a.778.778,0,0,1-.838.556H171.09q-.715,0-.518-.648L175.5,66.01a.878.878,0,0,1,.333-.5,1.055,1.055,0,0,1,.554-.127h1.725a1.057,1.057,0,0,1,.554.127.884.884,0,0,1,.333.5L183.7,79.851a.7.7,0,0,1-.2.833Zm-5.445-12.8q-.074-.254-.246-.254t-.247.254l-1.946,6.111a.621.621,0,0,0-.025.451.551.551,0,0,0,.246.243l4.632,2.546c.18.108.312.12.394.035a.276.276,0,0,0,.074-.29Z" transform="translate(-73.33 -28.116)" fill="#21313d"/>
    <path id="Tracé_17752" data-name="Tracé 17752" d="M203.451,81.125a.758.758,0,0,1-.542-.185.664.664,0,0,1-.2-.51V67.7q0-.231-.246-.231h-3.7a.756.756,0,0,1-.542-.186.662.662,0,0,1-.2-.508v-.695a.666.666,0,0,1,.2-.51.76.76,0,0,1,.542-.185h10.224a.761.761,0,0,1,.542.185.668.668,0,0,1,.2.51v.695a.664.664,0,0,1-.2.508.757.757,0,0,1-.542.186h-3.7q-.246,0-.246.231V80.43a.666.666,0,0,1-.2.51.76.76,0,0,1-.542.185Z" transform="translate(-85.156 -28.116)" fill="#21313d"/>
    <path id="Tracé_17753" data-name="Tracé 17753" d="M229.285,81.125a.758.758,0,0,1-.542-.185.664.664,0,0,1-.2-.51V66.079a.666.666,0,0,1,.2-.51.76.76,0,0,1,.542-.185h.862a.762.762,0,0,1,.542.185.668.668,0,0,1,.2.51V78.81q0,.232.247.231h6.726a.758.758,0,0,1,.542.185.666.666,0,0,1,.2.509v.694a.666.666,0,0,1-.2.51.758.758,0,0,1-.542.185Z" transform="translate(-98.277 -28.116)" fill="#21313d"/>
    <path id="Tracé_17754" data-name="Tracé 17754" d="M266.081,81.125a.8.8,0,0,1-.554.162,1.514,1.514,0,0,1-.579-.162l-7.169-3.935a.279.279,0,0,0-.308,0,.471.471,0,0,0-.185.231l-1.01,3.148a.777.777,0,0,1-.837.556H254.23q-.715,0-.518-.648l4.928-14.467a.878.878,0,0,1,.333-.5,1.054,1.054,0,0,1,.553-.127h1.725a1.057,1.057,0,0,1,.553.127.878.878,0,0,1,.333.5l4.706,13.842a.7.7,0,0,1-.2.833Zm-5.445-12.8c-.05-.169-.132-.254-.247-.254s-.2.085-.246.254L258.2,74.435a.621.621,0,0,0-.025.451.551.551,0,0,0,.246.243l4.632,2.546q.27.162.394.035a.276.276,0,0,0,.074-.29Z" transform="translate(-109.081 -28.116)" fill="#21313d"/>
    <path id="Tracé_17755" data-name="Tracé 17755" d="M297.09,81.125a.84.84,0,0,1-.555-.174,2.23,2.23,0,0,1-.431-.521l-6.257-10.3c-.083-.124-.169-.17-.259-.139a.214.214,0,0,0-.136.231V80.43a.666.666,0,0,1-.2.51.759.759,0,0,1-.542.185h-.862a.757.757,0,0,1-.542-.185.663.663,0,0,1-.2-.51V66.079a.664.664,0,0,1,.2-.51.759.759,0,0,1,.542-.185h.96a1.331,1.331,0,0,1,.616.127,1.175,1.175,0,0,1,.444.451l5.987,9.791a.23.23,0,0,0,.234.116c.09-.015.136-.085.136-.209V66.079a.666.666,0,0,1,.2-.51.759.759,0,0,1,.542-.185h.862a.761.761,0,0,1,.542.185.666.666,0,0,1,.2.51V80.43a.664.664,0,0,1-.2.51.759.759,0,0,1-.542.185Z" transform="translate(-123.461 -28.116)" fill="#21313d"/>
    <path id="Tracé_17756" data-name="Tracé 17756" d="M322.614,81.125a.76.76,0,0,1-.542-.185.664.664,0,0,1-.2-.51V67.7c0-.154-.083-.231-.246-.231h-3.7a.756.756,0,0,1-.542-.186.662.662,0,0,1-.2-.508v-.695a.666.666,0,0,1,.2-.51.76.76,0,0,1,.542-.185h10.224a.762.762,0,0,1,.542.185.666.666,0,0,1,.2.51v.695a.662.662,0,0,1-.2.508.757.757,0,0,1-.542.186h-3.7q-.246,0-.246.231V80.43a.666.666,0,0,1-.2.51.76.76,0,0,1-.542.185Z" transform="translate(-136.397 -28.116)" fill="#21313d"/>
    <path id="Tracé_17757" data-name="Tracé 17757" d="M348.449,81.125a.76.76,0,0,1-.542-.185.664.664,0,0,1-.2-.51V66.079a.666.666,0,0,1,.2-.51.762.762,0,0,1,.542-.185h.862a.762.762,0,0,1,.542.185.668.668,0,0,1,.2.51V80.43a.666.666,0,0,1-.2.51.76.76,0,0,1-.542.185Z" transform="translate(-149.519 -28.116)" fill="#21313d"/>
    <path id="Tracé_17758" data-name="Tracé 17758" d="M373.826,83.265a.673.673,0,0,1-1.01-.255l-1.33-2.152a7.21,7.21,0,0,1-2.168.324A6.6,6.6,0,0,1,367,80.788a5.676,5.676,0,0,1-1.835-1.088,4.81,4.81,0,0,1-1.207-1.677,5.329,5.329,0,0,1-.431-2.165V70.3a5.33,5.33,0,0,1,.431-2.164,4.818,4.818,0,0,1,1.207-1.678A5.7,5.7,0,0,1,367,65.372a7.015,7.015,0,0,1,4.632,0,5.694,5.694,0,0,1,1.835,1.088,4.826,4.826,0,0,1,1.208,1.678,5.349,5.349,0,0,1,.431,2.164v5.555a5.107,5.107,0,0,1-1.724,3.912l1.354,2.2a.608.608,0,0,1,.087.532.777.777,0,0,1-.357.416Zm-6.6-9.421a.607.607,0,0,1-.087-.532.775.775,0,0,1,.357-.416l.641-.348a.673.673,0,0,1,1.01.255l3.031,5.023a3.405,3.405,0,0,0,.431-.891,3.5,3.5,0,0,0,.16-1.076V70.3a3.214,3.214,0,0,0-.887-2.314,4.007,4.007,0,0,0-5.124,0,3.212,3.212,0,0,0-.888,2.314v5.555a3.211,3.211,0,0,0,.888,2.315,3.382,3.382,0,0,0,2.562.926,4.389,4.389,0,0,0,1.01-.116Z" transform="translate(-156.322 -27.942)" fill="#21313d"/>
    <path id="Tracé_17759" data-name="Tracé 17759" d="M404.578,66.079a.668.668,0,0,1,.2-.51.762.762,0,0,1,.542-.185h.863a.762.762,0,0,1,.542.185.668.668,0,0,1,.2.51v9.953a5.334,5.334,0,0,1-.431,2.164,4.808,4.808,0,0,1-1.207,1.678,5.68,5.68,0,0,1-1.835,1.088,7.005,7.005,0,0,1-4.632,0,5.676,5.676,0,0,1-1.835-1.088,4.8,4.8,0,0,1-1.207-1.678,5.325,5.325,0,0,1-.432-2.164V66.079a.664.664,0,0,1,.2-.51.759.759,0,0,1,.542-.185h.862a.761.761,0,0,1,.542.185.668.668,0,0,1,.2.51v9.953a3.212,3.212,0,0,0,.887,2.315,4.007,4.007,0,0,0,5.124,0,3.214,3.214,0,0,0,.887-2.315Z" transform="translate(-170 -28.116)" fill="#21313d"/>
    <path id="Tracé_17760" data-name="Tracé 17760" d="M427.7,81.125a.76.76,0,0,1-.542-.185.664.664,0,0,1-.2-.51V66.079a.665.665,0,0,1,.2-.51.762.762,0,0,1,.542-.185h8.13a.764.764,0,0,1,.542.185.668.668,0,0,1,.2.51v.695a.663.663,0,0,1-.2.508.76.76,0,0,1-.542.186h-6.282q-.246,0-.246.231v4.167q0,.232.246.231h5.789a.762.762,0,0,1,.542.185.667.667,0,0,1,.2.51v.694a.665.665,0,0,1-.2.509.76.76,0,0,1-.542.185h-5.789c-.164,0-.246.078-.246.231v4.4q0,.232.246.231h6.614a.76.76,0,0,1,.542.185.664.664,0,0,1,.2.509v.694a.664.664,0,0,1-.2.51.76.76,0,0,1-.542.185Z" transform="translate(-183.598 -28.116)" fill="#21313d"/>
    <path id="Tracé_17761" data-name="Tracé 17761" d="M176.607,109.827a.234.234,0,0,1-.071.186,4.143,4.143,0,0,1-1.127.6,3.939,3.939,0,0,1-2.711-.07,4.094,4.094,0,0,1-1.232-.785,3.9,3.9,0,0,1-.82-1.179,3.371,3.371,0,0,1-.289-1.388,3.419,3.419,0,0,1,1.109-2.563,3.741,3.741,0,0,1,2.682-1.065,3.787,3.787,0,0,1,2.4.825.266.266,0,0,1,.085.2.262.262,0,0,1-.085.195.285.285,0,0,1-.2.082.357.357,0,0,1-.242-.109,3.1,3.1,0,0,0-1.957-.635,3.166,3.166,0,0,0-2.27.9,2.977,2.977,0,0,0,0,4.34,3.164,3.164,0,0,0,2.27.9,3.227,3.227,0,0,0,1.877-.576v-1.842h-1.635a.281.281,0,0,1-.206-.081.267.267,0,0,1-.083-.2.261.261,0,0,1,.083-.2.286.286,0,0,1,.206-.08h1.929a.312.312,0,0,1,.209.082.278.278,0,0,1,.08.195Z" transform="translate(-73.255 -44.534)" fill="#21313d"/>
    <path id="Tracé_17762" data-name="Tracé 17762" d="M188.154,103.563a2.252,2.252,0,0,1,1.607.626,2.054,2.054,0,0,1,.005,3.024,2.59,2.59,0,0,1-.772.49l1.781,2.685a.252.252,0,0,1,.053.15.262.262,0,0,1-.087.2.3.3,0,0,1-.212.082.311.311,0,0,1-.26-.149l-1.887-2.835c-.068.006-.143.009-.227.009h-1.684v2.694a.264.264,0,0,1-.087.2.3.3,0,0,1-.213.082.294.294,0,0,1-.207-.082.262.262,0,0,1-.087-.2v-6.694a.263.263,0,0,1,.087-.2.292.292,0,0,1,.207-.082Zm-1.684.558v3.166h1.684a1.674,1.674,0,0,0,1.187-.462,1.481,1.481,0,0,0,.492-1.121,1.45,1.45,0,0,0-.492-1.116,1.666,1.666,0,0,0-1.187-.467Z" transform="translate(-79.929 -44.533)" fill="#21313d"/>
    <path id="Tracé_17763" data-name="Tracé 17763" d="M205.041,107.192a3.514,3.514,0,0,1-1.056,2.567,3.566,3.566,0,0,1-3.915.785,3.869,3.869,0,0,1-1.169-.785,3.924,3.924,0,0,1-.778-1.179,3.651,3.651,0,0,1,.778-3.951,3.565,3.565,0,0,1,5.084,0,3.5,3.5,0,0,1,1.056,2.563m-3.6-3.071a3.067,3.067,0,1,0,2.149.9,2.943,2.943,0,0,0-2.149-.9" transform="translate(-85.077 -44.533)" fill="#21313d"/>
    <path id="Tracé_17764" data-name="Tracé 17764" d="M214.571,103.845a.266.266,0,0,1,.085-.2.289.289,0,0,1,.209-.082.28.28,0,0,1,.206.082.27.27,0,0,1,.083.2v4.462a1.839,1.839,0,0,0,.6,1.384,2.108,2.108,0,0,0,2.886,0,1.845,1.845,0,0,0,.6-1.384v-4.462a.266.266,0,0,1,.086-.2.29.29,0,0,1,.209-.082.285.285,0,0,1,.2.082.267.267,0,0,1,.085.2v4.462a2.371,2.371,0,0,1-.768,1.778,2.718,2.718,0,0,1-3.716,0,2.5,2.5,0,0,1-.576-.81,2.4,2.4,0,0,1-.192-.968Z" transform="translate(-92.268 -44.533)" fill="#21313d"/>
    <path id="Tracé_17765" data-name="Tracé 17765" d="M230.18,103.563a2.364,2.364,0,0,1,1.716.685,2.165,2.165,0,0,1,.716,1.642,2.2,2.2,0,0,1-.716,1.646,2.394,2.394,0,0,1-1.716.68H228.92v2.322a.265.265,0,0,1-.086.2.29.29,0,0,1-.208.082.284.284,0,0,1-.206-.082.268.268,0,0,1-.083-.2v-6.694a.269.269,0,0,1,.083-.2.282.282,0,0,1,.206-.082Zm-1.261.558v3.537h1.261a1.815,1.815,0,0,0,1.3-.517,1.7,1.7,0,0,0,0-2.5,1.808,1.808,0,0,0-1.3-.522Z" transform="translate(-98.188 -44.533)" fill="#21313d"/>
    <path id="Tracé_17766" data-name="Tracé 17766" d="M244.7,103.563a.286.286,0,0,1,.2.082.267.267,0,0,1,.085.2.261.261,0,0,1-.085.194.284.284,0,0,1-.2.082h-4.379v2.789h3.209a.289.289,0,0,1,.208.082.276.276,0,0,1,0,.4.289.289,0,0,1-.208.081h-3.209v2.789H244.7a.284.284,0,0,1,.2.082.261.261,0,0,1,.085.194.267.267,0,0,1-.085.2.286.286,0,0,1-.2.082h-4.668a.291.291,0,0,1-.209-.082.267.267,0,0,1-.085-.2v-6.693a.267.267,0,0,1,.085-.2.291.291,0,0,1,.209-.082Z" transform="translate(-103.089 -44.533)" fill="#21313d"/>
    <path id="Tracé_17767" data-name="Tracé 17767" d="M253.408,105.023v5.515a.269.269,0,0,1-.083.2.285.285,0,0,1-.206.082.292.292,0,0,1-.209-.082.264.264,0,0,1-.085-.2v-6.693a.265.265,0,0,1,.085-.2.292.292,0,0,1,.209-.082.272.272,0,0,1,.256.145l3.242,6.209,3.242-6.209a.3.3,0,0,1,.467-.063.272.272,0,0,1,.083.2v6.693a.271.271,0,0,1-.083.2.284.284,0,0,1-.206.082.29.29,0,0,1-.208-.082.263.263,0,0,1-.086-.2v-5.515l-2.958,5.665a.3.3,0,0,1-.521-.045Z" transform="translate(-108.718 -44.533)" fill="#21313d"/>
    <path id="Tracé_17768" data-name="Tracé 17768" d="M275.642,103.563a.285.285,0,0,1,.2.082.266.266,0,0,1,.085.2.259.259,0,0,1-.085.194.283.283,0,0,1-.2.082h-4.38v2.789h3.209a.292.292,0,0,1,.209.082.277.277,0,0,1,0,.4.292.292,0,0,1-.209.081h-3.209v2.789h4.38a.283.283,0,0,1,.2.082.259.259,0,0,1,.085.194.265.265,0,0,1-.085.2.285.285,0,0,1-.2.082h-4.669a.29.29,0,0,1-.208-.082.265.265,0,0,1-.086-.2v-6.693a.266.266,0,0,1,.086-.2.29.29,0,0,1,.208-.082Z" transform="translate(-116.395 -44.533)" fill="#21313d"/>
    <path id="Tracé_17769" data-name="Tracé 17769" d="M284.354,110.539a.269.269,0,0,1-.083.2.281.281,0,0,1-.206.082.289.289,0,0,1-.209-.082.264.264,0,0,1-.085-.2v-6.694a.265.265,0,0,1,.085-.2.291.291,0,0,1,.209-.082.28.28,0,0,1,.223.1l4.929,6.064v-5.882a.266.266,0,0,1,.085-.2.29.29,0,0,1,.208-.082.286.286,0,0,1,.2.082.265.265,0,0,1,.085.2v6.694a.264.264,0,0,1-.085.2.284.284,0,0,1-.2.082.281.281,0,0,1-.218-.082l-4.938-6.077Z" transform="translate(-122.025 -44.534)" fill="#21313d"/>
    <path id="Tracé_17770" data-name="Tracé 17770" d="M298.5,104.121a.286.286,0,0,1-.2-.081.262.262,0,0,1-.086-.195.268.268,0,0,1,.086-.2.284.284,0,0,1,.2-.082h5.057a.288.288,0,0,1,.208.082.264.264,0,0,1,.085.2.258.258,0,0,1-.085.195.29.29,0,0,1-.208.081h-2.237v6.418a.269.269,0,0,1-.083.2.282.282,0,0,1-.206.082.291.291,0,0,1-.209-.082.264.264,0,0,1-.085-.2v-6.418Z" transform="translate(-128.235 -44.533)" fill="#21313d"/>
    <path id="Tracé_17771" data-name="Tracé 17771" d="M321.1,103.845a.266.266,0,0,1,.085-.2.288.288,0,0,1,.208-.082.284.284,0,0,1,.207.082.271.271,0,0,1,.082.2v3.065h4.086v-3.065a.265.265,0,0,1,.085-.2.289.289,0,0,1,.209-.082.283.283,0,0,1,.2.082.266.266,0,0,1,.086.2v6.694a.265.265,0,0,1-.086.2.285.285,0,0,1-.2.082.291.291,0,0,1-.209-.082.264.264,0,0,1-.085-.2v-3.066h-4.086v3.066a.27.27,0,0,1-.082.2.286.286,0,0,1-.207.082.29.29,0,0,1-.208-.082.265.265,0,0,1-.085-.2Z" transform="translate(-138.075 -44.533)" fill="#21313d"/>
    <path id="Tracé_17772" data-name="Tracé 17772" d="M341.392,107.192a3.527,3.527,0,0,1-1.048,2.567,3.52,3.52,0,0,1-3.886.785,3.846,3.846,0,0,1-1.16-.785,3.936,3.936,0,0,1-.772-1.179,3.671,3.671,0,0,1,.772-3.951,3.417,3.417,0,0,1,2.526-1.066,3.383,3.383,0,0,1,2.521,1.066,3.514,3.514,0,0,1,1.048,2.563m-3.569-3.071a2.908,2.908,0,0,0-2.137.9,3.106,3.106,0,0,0,0,4.34,2.986,2.986,0,0,0,4.27,0,3.1,3.1,0,0,0,0-4.34,2.887,2.887,0,0,0-2.133-.9" transform="translate(-143.733 -44.533)" fill="#21313d"/>
    <path id="Tracé_17773" data-name="Tracé 17773" d="M349.995,109.672a.269.269,0,0,1,.083-.2.281.281,0,0,1,.206-.082.3.3,0,0,1,.251.128c.041.057.088.117.142.181a1.806,1.806,0,0,0,.516.393,1.76,1.76,0,0,0,.758.17,1.633,1.633,0,0,0,1.057-.376,1.8,1.8,0,0,0,.417-.5,1.44,1.44,0,0,0,.166-.719,1.456,1.456,0,0,0-.393-1.007,1.928,1.928,0,0,0-1.123-.553,2.072,2.072,0,0,1-1.26-.622,1.874,1.874,0,0,1-.323-.531,1.6,1.6,0,0,1-.113-.6,1.7,1.7,0,0,1,.649-1.365,1.836,1.836,0,0,1,1.2-.426,1.892,1.892,0,0,1,1.4.63,1.8,1.8,0,0,1,.18.241.283.283,0,0,1,.043.154.259.259,0,0,1-.085.195.284.284,0,0,1-.2.082.234.234,0,0,1-.195-.073c-.05-.066-.112-.142-.185-.227a1.22,1.22,0,0,0-.858-.431,1.313,1.313,0,0,0-.924.291,1.1,1.1,0,0,0-.441.812,1.234,1.234,0,0,0,.052.472,1.136,1.136,0,0,0,.242.412,1.834,1.834,0,0,0,1.033.459,2.262,2.262,0,0,1,1.355.716,2.291,2.291,0,0,1,.388.64,1.9,1.9,0,0,1,.138.712,2.112,2.112,0,0,1-.221,1,2.275,2.275,0,0,1-.566.659,2.219,2.219,0,0,1-1.432.513,2.307,2.307,0,0,1-1.725-.758,2.209,2.209,0,0,1-.176-.218.269.269,0,0,1-.062-.172" transform="translate(-150.502 -44.533)" fill="#21313d"/>
    <path id="Tracé_17774" data-name="Tracé 17774" d="M363.464,103.563a2.365,2.365,0,0,1,1.716.685,2.165,2.165,0,0,1,.716,1.642,2.2,2.2,0,0,1-.716,1.646,2.394,2.394,0,0,1-1.716.68H362.2v2.322a.265.265,0,0,1-.085.2.29.29,0,0,1-.208.082.285.285,0,0,1-.207-.082.27.27,0,0,1-.082-.2v-6.694a.271.271,0,0,1,.082-.2.283.283,0,0,1,.207-.082Zm-1.261.558v3.537h1.261a1.815,1.815,0,0,0,1.3-.517,1.7,1.7,0,0,0,0-2.5,1.807,1.807,0,0,0-1.3-.522Z" transform="translate(-155.501 -44.533)" fill="#21313d"/>
    <path id="Tracé_17775" data-name="Tracé 17775" d="M373.428,103.845a.27.27,0,0,1,.083-.2.281.281,0,0,1,.206-.082.29.29,0,0,1,.209.082.265.265,0,0,1,.085.2v6.694a.264.264,0,0,1-.085.2.292.292,0,0,1-.209.082.282.282,0,0,1-.206-.082.269.269,0,0,1-.083-.2Z" transform="translate(-160.578 -44.533)" fill="#21313d"/>
    <path id="Tracé_17776" data-name="Tracé 17776" d="M378.638,104.121a.284.284,0,0,1-.2-.081.26.26,0,0,1-.086-.195.266.266,0,0,1,.086-.2.283.283,0,0,1,.2-.082h5.057a.29.29,0,0,1,.209.082.265.265,0,0,1,.085.2.26.26,0,0,1-.085.195.292.292,0,0,1-.209.081h-2.237v6.418a.268.268,0,0,1-.083.2.284.284,0,0,1-.206.082.29.29,0,0,1-.208-.082.263.263,0,0,1-.085-.2v-6.418Z" transform="translate(-162.694 -44.533)" fill="#21313d"/>
    <path id="Tracé_17777" data-name="Tracé 17777" d="M391.407,108.216l-.991,2.431a.313.313,0,0,1-.066.1.315.315,0,0,1-.413-.009.267.267,0,0,1-.085-.2.289.289,0,0,1,.029-.122l2.706-6.653a.379.379,0,0,1,.076-.122.285.285,0,0,1,.2-.078.292.292,0,0,1,.209.082.325.325,0,0,1,.076.118l2.7,6.653a.29.29,0,0,1,.028.122.267.267,0,0,1-.085.2.286.286,0,0,1-.2.082.3.3,0,0,1-.2-.068.31.31,0,0,1-.071-.1l-.986-2.431Zm2.7-.558-1.237-3.048-1.232,3.048Z" transform="translate(-167.641 -44.533)" fill="#21313d"/>
    <path id="Tracé_17778" data-name="Tracé 17778" d="M404.289,103.845a.267.267,0,0,1,.085-.2.284.284,0,0,1,.2-.082.29.29,0,0,1,.209.082.265.265,0,0,1,.085.2v6.417h3.986a.291.291,0,0,1,.209.082.26.26,0,0,1,.085.195.265.265,0,0,1-.085.2.291.291,0,0,1-.209.082h-4.279a.286.286,0,0,1-.2-.082.266.266,0,0,1-.085-.2Z" transform="translate(-173.849 -44.533)" fill="#21313d"/>
    <path id="Tracé_17779" data-name="Tracé 17779" d="M417.115,103.845a.269.269,0,0,1,.083-.2.282.282,0,0,1,.206-.082.29.29,0,0,1,.209.082.265.265,0,0,1,.085.2v6.694a.264.264,0,0,1-.085.2.292.292,0,0,1-.209.082.284.284,0,0,1-.206-.082.269.269,0,0,1-.083-.2Z" transform="translate(-179.364 -44.533)" fill="#21313d"/>
    <path id="Tracé_17780" data-name="Tracé 17780" d="M428.051,103.563a.286.286,0,0,1,.2.082.268.268,0,0,1,.085.2.261.261,0,0,1-.085.194.284.284,0,0,1-.2.082h-4.379v2.789h3.209a.289.289,0,0,1,.208.082.276.276,0,0,1,0,.4.289.289,0,0,1-.208.081h-3.209v2.789h4.379a.284.284,0,0,1,.2.082.261.261,0,0,1,.085.194.267.267,0,0,1-.085.2.286.286,0,0,1-.2.082h-4.668a.291.291,0,0,1-.209-.082.267.267,0,0,1-.085-.2v-6.693a.267.267,0,0,1,.085-.2.291.291,0,0,1,.209-.082Z" transform="translate(-181.933 -44.533)" fill="#21313d"/>
    <path id="Tracé_17781" data-name="Tracé 17781" d="M438.416,103.563a2.19,2.19,0,0,1,1.578.626,2.08,2.08,0,0,1,0,3.024,2.534,2.534,0,0,1-.758.49l1.748,2.685a.251.251,0,0,1,.052.15.265.265,0,0,1-.086.2.291.291,0,0,1-.209.082.3.3,0,0,1-.256-.149l-1.852-2.835c-.067.006-.141.009-.223.009h-1.654v2.694a.267.267,0,0,1-.086.2.291.291,0,0,1-.209.082.286.286,0,0,1-.2-.082.264.264,0,0,1-.084-.2v-6.694a.264.264,0,0,1,.084-.2.284.284,0,0,1,.2-.082Zm-1.654.558v3.166h1.654a1.631,1.631,0,0,0,1.167-.462,1.5,1.5,0,0,0,.483-1.121,1.464,1.464,0,0,0-.483-1.116,1.623,1.623,0,0,0-1.167-.467Z" transform="translate(-187.562 -44.533)" fill="#21313d"/>
  </g>
</svg>
